<?xml version="1.0" encoding="UTF-8" standalone="no"?>
<!--MusicXML 2.0 file created by CapToMusic.py CapXML to MusicXML converter version 1.40-->
<!DOCTYPE score-partwise PUBLIC "-//Recordare//DTD MusicXML 2.0 Partwise//EN" "http://www.musicxml.org/dtds/partwise.dtd">
<score-partwise version="2.0">
	<identification>
		<encoding>
			<encoding-date>2017-03-18</encoding-date>
			<software>CapToMusic.py CapXML to MusicXML converter version 1.40</software>
			<encoding-description>Options: FinaleDolet33=1, ChordCaseMatters=1, ExportToSibelius=0</encoding-description>
		</encoding>
	</identification>
	<defaults>
		<scaling>
			<millimeters>1.6</millimeters>
			<tenths>10.0</tenths>
		</scaling>
		<page-layout>
			<page-height>1856</page-height>
			<page-width>1312</page-width>
			<page-margins type="both">
				<left-margin>93</left-margin>
				<right-margin>93</right-margin>
				<top-margin>93</top-margin>
				<bottom-margin>93</bottom-margin>
			</page-margins>
		</page-layout>
		<system-layout>
			<system-margins>
				<left-margin>0</left-margin>
				<right-margin>0</right-margin>
			</system-margins>
			<system-distance>10</system-distance>
			<top-system-distance>90</top-system-distance>
		</system-layout>
	</defaults>
	<credit>
		<credit-words></credit-words>
	</credit>
	<part-list>
		<score-part id="P1">
			<part-name></part-name>
			<part-abbreviation></part-abbreviation>
			<score-instrument id="P1-I1">
				<instrument-name>Midi_1</instrument-name>
			</score-instrument>
			<midi-instrument id="P1-I1">
				<midi-channel>1</midi-channel>
				<midi-program>1</midi-program>
			</midi-instrument>
		</score-part>
	</part-list>
	<part id="P1">
		<measure number="1">
			<direction>
				<direction-type>
					<other-direction/>
				</direction-type>
				<sound tempo="120"/>
			</direction>
			<print>
				<system-layout>
					<system-margins>
						<left-margin>0</left-margin>
						<right-margin>0</right-margin>
					</system-margins>
					<top-system-distance>250</top-system-distance>
				</system-layout>
				<staff-layout number="1">
					<staff-distance>160</staff-distance>
				</staff-layout>
				<staff-layout number="2">
					<staff-distance>130</staff-distance>
				</staff-layout>
			</print>
			<attributes>
				<divisions>480</divisions>
				<key>
					<fifths>1</fifths>
					<mode>major</mode>
				</key>
				<time symbol="common">
					<beats>4</beats>
					<beat-type>4</beat-type>
				</time>
				<staves>2</staves>
				<clef number="1">
					<sign>G</sign>
					<line>2</line>
				</clef>
			</attributes>
			<note>
				<pitch>
					<step>E</step>
					<octave>4</octave>
				</pitch>
				<duration>480</duration>
				<voice>1</voice>
				<type>quarter</type>
				<stem>up</stem>
				<staff>1</staff>
			</note>
			<note>
				<pitch>
					<step>E</step>
					<octave>4</octave>
				</pitch>
				<duration>480</duration>
				<voice>1</voice>
				<type>quarter</type>
				<stem>up</stem>
				<staff>1</staff>
			</note>
			<note>
				<pitch>
					<step>G</step>
					<octave>4</octave>
				</pitch>
				<duration>480</duration>
				<voice>1</voice>
				<type>quarter</type>
				<stem>up</stem>
				<staff>1</staff>
			</note>
			<note>
				<pitch>
					<step>G</step>
					<octave>4</octave>
				</pitch>
				<duration>480</duration>
				<voice>1</voice>
				<type>quarter</type>
				<stem>up</stem>
				<staff>1</staff>
			</note>
			<backup>
				<duration>1920</duration>
			</backup>
			<note>
				<pitch>
					<step>B</step>
					<octave>3</octave>
				</pitch>
				<duration>480</duration>
				<voice>2</voice>
				<type>quarter</type>
				<stem>down</stem>
				<staff>1</staff>
				<lyric default-y="-105" number="1">
					<syllabic>single</syllabic>
					<text>Ach,</text>
				</lyric>
			</note>
			<note>
				<pitch>
					<step>B</step>
					<octave>3</octave>
				</pitch>
				<duration>480</duration>
				<voice>2</voice>
				<type>quarter</type>
				<stem>down</stem>
				<staff>1</staff>
				<lyric default-y="-105" number="1">
					<syllabic>single</syllabic>
					<text>was</text>
				</lyric>
			</note>
			<note>
				<pitch>
					<step>E</step>
					<octave>4</octave>
				</pitch>
				<duration>480</duration>
				<voice>2</voice>
				<type>quarter</type>
				<stem>down</stem>
				<staff>1</staff>
				<lyric default-y="-105" number="1">
					<syllabic>single</syllabic>
					<text>soll</text>
				</lyric>
			</note>
			<note>
				<pitch>
					<step>E</step>
					<octave>4</octave>
				</pitch>
				<duration>480</duration>
				<voice>2</voice>
				<type>quarter</type>
				<stem>down</stem>
				<staff>1</staff>
				<lyric default-y="-105" number="1">
					<syllabic>single</syllabic>
					<text>ich</text>
				</lyric>
			</note>
			<backup>
				<duration>1920</duration>
			</backup>
			<attributes>
				<time symbol="common">
					<beats>4</beats>
					<beat-type>4</beat-type>
				</time>
				<staves>2</staves>
				<clef number="2">
					<sign>F</sign>
					<line>4</line>
				</clef>
			</attributes>
			<note>
				<pitch>
					<step>G</step>
					<octave>3</octave>
				</pitch>
				<duration>480</duration>
				<voice>3</voice>
				<type>quarter</type>
				<stem>up</stem>
				<staff>2</staff>
			</note>
			<note>
				<pitch>
					<step>G</step>
					<octave>3</octave>
				</pitch>
				<duration>480</duration>
				<voice>3</voice>
				<type>quarter</type>
				<stem>up</stem>
				<staff>2</staff>
			</note>
			<note>
				<pitch>
					<step>B</step>
					<octave>3</octave>
				</pitch>
				<duration>480</duration>
				<voice>3</voice>
				<type>quarter</type>
				<stem>up</stem>
				<staff>2</staff>
			</note>
			<note>
				<pitch>
					<step>B</step>
					<octave>3</octave>
				</pitch>
				<duration>480</duration>
				<voice>3</voice>
				<type>quarter</type>
				<stem>up</stem>
				<staff>2</staff>
			</note>
			<backup>
				<duration>1920</duration>
			</backup>
			<note>
				<pitch>
					<step>E</step>
					<octave>3</octave>
				</pitch>
				<duration>240</duration>
				<voice>4</voice>
				<type>eighth</type>
				<stem>down</stem>
				<staff>2</staff>
				<beam number="1">begin</beam>
			</note>
			<note>
				<pitch>
					<step>F</step>
					<alter>1</alter>
					<octave>3</octave>
				</pitch>
				<duration>240</duration>
				<voice>4</voice>
				<type>eighth</type>
				<stem>down</stem>
				<staff>2</staff>
				<beam number="1">end</beam>
			</note>
			<note>
				<pitch>
					<step>G</step>
					<octave>3</octave>
				</pitch>
				<duration>240</duration>
				<voice>4</voice>
				<type>eighth</type>
				<stem>down</stem>
				<staff>2</staff>
				<beam number="1">begin</beam>
			</note>
			<note>
				<pitch>
					<step>F</step>
					<alter>1</alter>
					<octave>3</octave>
				</pitch>
				<duration>240</duration>
				<voice>4</voice>
				<type>eighth</type>
				<stem>down</stem>
				<staff>2</staff>
				<beam number="1">end</beam>
			</note>
			<note>
				<pitch>
					<step>E</step>
					<octave>3</octave>
				</pitch>
				<duration>240</duration>
				<voice>4</voice>
				<type>eighth</type>
				<stem>down</stem>
				<staff>2</staff>
				<beam number="1">begin</beam>
			</note>
			<note>
				<pitch>
					<step>D</step>
					<octave>3</octave>
				</pitch>
				<duration>240</duration>
				<voice>4</voice>
				<type>eighth</type>
				<stem>down</stem>
				<staff>2</staff>
				<beam number="1">end</beam>
			</note>
			<note>
				<pitch>
					<step>C</step>
					<octave>3</octave>
				</pitch>
				<duration>240</duration>
				<voice>4</voice>
				<type>eighth</type>
				<stem>down</stem>
				<staff>2</staff>
				<beam number="1">begin</beam>
			</note>
			<note>
				<pitch>
					<step>B</step>
					<octave>2</octave>
				</pitch>
				<duration>240</duration>
				<voice>4</voice>
				<type>eighth</type>
				<stem>down</stem>
				<staff>2</staff>
				<beam number="1">end</beam>
			</note>
		</measure>
		<measure number="2">
			<note>
				<pitch>
					<step>A</step>
					<octave>4</octave>
				</pitch>
				<duration>480</duration>
				<voice>1</voice>
				<type>quarter</type>
				<stem>up</stem>
				<staff>1</staff>
			</note>
			<note>
				<pitch>
					<step>A</step>
					<octave>4</octave>
				</pitch>
				<duration>480</duration>
				<voice>1</voice>
				<type>quarter</type>
				<stem>up</stem>
				<staff>1</staff>
			</note>
			<direction placement="above">
				<direction-type>
					<words relative-x="33" default-y="220" font-family="Times New Roman" font-size="17" font-weight="bold" justify="center">Ach, was soll ich Sünder machen.</words>
				</direction-type>
				<staff>1</staff>
			</direction>
			<note>
				<pitch>
					<step>B</step>
					<octave>4</octave>
				</pitch>
				<duration>480</duration>
				<voice>1</voice>
				<type>quarter</type>
				<stem>up</stem>
				<staff>1</staff>
			</note>
			<note>
				<pitch>
					<step>B</step>
					<octave>4</octave>
				</pitch>
				<duration>480</duration>
				<voice>1</voice>
				<type>quarter</type>
				<stem>up</stem>
				<staff>1</staff>
				<notations>
					<fermata type="upright"/>
				</notations>
			</note>
			<backup>
				<duration>1920</duration>
			</backup>
			<note>
				<pitch>
					<step>E</step>
					<octave>4</octave>
				</pitch>
				<duration>480</duration>
				<voice>2</voice>
				<type>quarter</type>
				<stem>down</stem>
				<staff>1</staff>
				<lyric default-y="-105" number="1">
					<syllabic>begin</syllabic>
					<text>Sün</text>
				</lyric>
			</note>
			<note>
				<pitch>
					<step>A</step>
					<octave>4</octave>
				</pitch>
				<duration>240</duration>
				<voice>2</voice>
				<type>eighth</type>
				<stem>down</stem>
				<staff>1</staff>
				<beam number="1">begin</beam>
				<lyric default-y="-105" number="1">
					<syllabic>end</syllabic>
					<text>der</text>
				</lyric>
			</note>
			<note>
				<pitch>
					<step>F</step>
					<alter>1</alter>
					<octave>4</octave>
				</pitch>
				<duration>240</duration>
				<voice>2</voice>
				<type>eighth</type>
				<stem>down</stem>
				<staff>1</staff>
				<beam number="1">end</beam>
			</note>
			<note>
				<pitch>
					<step>G</step>
					<octave>4</octave>
				</pitch>
				<duration>480</duration>
				<voice>2</voice>
				<type>quarter</type>
				<stem>down</stem>
				<staff>1</staff>
				<lyric default-y="-105" number="1">
					<syllabic>begin</syllabic>
					<text>ma</text>
				</lyric>
			</note>
			<note>
				<pitch>
					<step>G</step>
					<octave>4</octave>
				</pitch>
				<duration>480</duration>
				<voice>2</voice>
				<type>quarter</type>
				<stem>down</stem>
				<staff>1</staff>
				<lyric default-y="-105" number="1">
					<syllabic>end</syllabic>
					<text>chen?</text>
				</lyric>
			</note>
			<backup>
				<duration>1920</duration>
			</backup>
			<note>
				<pitch>
					<step>C</step>
					<octave>4</octave>
				</pitch>
				<duration>480</duration>
				<voice>3</voice>
				<type>quarter</type>
				<stem>up</stem>
				<staff>2</staff>
			</note>
			<note>
				<pitch>
					<step>D</step>
					<octave>4</octave>
				</pitch>
				<duration>480</duration>
				<voice>3</voice>
				<type>quarter</type>
				<stem>up</stem>
				<staff>2</staff>
			</note>
			<note>
				<pitch>
					<step>D</step>
					<octave>4</octave>
				</pitch>
				<duration>480</duration>
				<voice>3</voice>
				<type>quarter</type>
				<stem>up</stem>
				<staff>2</staff>
			</note>
			<note>
				<pitch>
					<step>D</step>
					<octave>4</octave>
				</pitch>
				<duration>480</duration>
				<voice>3</voice>
				<type>quarter</type>
				<stem>up</stem>
				<staff>2</staff>
			</note>
			<backup>
				<duration>1920</duration>
			</backup>
			<note>
				<pitch>
					<step>A</step>
					<octave>2</octave>
				</pitch>
				<duration>240</duration>
				<voice>4</voice>
				<type>eighth</type>
				<stem>down</stem>
				<staff>2</staff>
				<beam number="1">begin</beam>
			</note>
			<note>
				<pitch>
					<step>G</step>
					<octave>2</octave>
				</pitch>
				<duration>240</duration>
				<voice>4</voice>
				<type>eighth</type>
				<stem>down</stem>
				<staff>2</staff>
				<beam number="1">end</beam>
			</note>
			<note>
				<pitch>
					<step>F</step>
					<alter>1</alter>
					<octave>2</octave>
				</pitch>
				<duration>240</duration>
				<voice>4</voice>
				<type>eighth</type>
				<stem>down</stem>
				<staff>2</staff>
				<beam number="1">begin</beam>
			</note>
			<note>
				<pitch>
					<step>D</step>
					<octave>2</octave>
				</pitch>
				<duration>240</duration>
				<voice>4</voice>
				<type>eighth</type>
				<stem>down</stem>
				<staff>2</staff>
				<beam number="1">end</beam>
			</note>
			<note>
				<pitch>
					<step>G</step>
					<octave>2</octave>
				</pitch>
				<duration>480</duration>
				<voice>4</voice>
				<type>quarter</type>
				<stem>down</stem>
				<staff>2</staff>
			</note>
			<note>
				<pitch>
					<step>G</step>
					<octave>3</octave>
				</pitch>
				<duration>480</duration>
				<voice>4</voice>
				<type>quarter</type>
				<stem>down</stem>
				<staff>2</staff>
				<notations>
					<fermata type="inverted"/>
				</notations>
			</note>
		</measure>
		<measure number="3">
			<note>
				<pitch>
					<step>B</step>
					<octave>4</octave>
				</pitch>
				<duration>480</duration>
				<voice>1</voice>
				<type>quarter</type>
				<stem>up</stem>
				<staff>1</staff>
			</note>
			<note>
				<pitch>
					<step>D</step>
					<octave>5</octave>
				</pitch>
				<duration>480</duration>
				<voice>1</voice>
				<type>quarter</type>
				<stem>up</stem>
				<staff>1</staff>
			</note>
			<note>
				<pitch>
					<step>C</step>
					<octave>5</octave>
				</pitch>
				<duration>480</duration>
				<voice>1</voice>
				<type>quarter</type>
				<stem>up</stem>
				<staff>1</staff>
			</note>
			<direction placement="above">
				<direction-type>
					<words relative-x="289" default-y="145" font-family="Times New Roman" font-size="10" justify="right">Worte:Johann Flitner 1661
Quelle: Johann Flitner 1661
Satz: Johann Sebastian Bach
BWV 259</words>
				</direction-type>
				<staff>1</staff>
			</direction>
			<note>
				<pitch>
					<step>B</step>
					<octave>4</octave>
				</pitch>
				<duration>480</duration>
				<voice>1</voice>
				<type>quarter</type>
				<stem>up</stem>
				<staff>1</staff>
			</note>
			<backup>
				<duration>1920</duration>
			</backup>
			<note>
				<pitch>
					<step>G</step>
					<octave>4</octave>
				</pitch>
				<duration>480</duration>
				<voice>2</voice>
				<type>quarter</type>
				<stem>down</stem>
				<staff>1</staff>
				<lyric default-y="-105" number="1">
					<syllabic>single</syllabic>
					<text>ach</text>
				</lyric>
			</note>
			<note>
				<pitch>
					<step>G</step>
					<octave>4</octave>
				</pitch>
				<duration>480</duration>
				<voice>2</voice>
				<type>quarter</type>
				<stem>down</stem>
				<staff>1</staff>
				<lyric default-y="-105" number="1">
					<syllabic>single</syllabic>
					<text>was</text>
				</lyric>
			</note>
			<note>
				<pitch>
					<step>G</step>
					<octave>4</octave>
				</pitch>
				<duration>240</duration>
				<voice>2</voice>
				<type>eighth</type>
				<stem>down</stem>
				<staff>1</staff>
				<beam number="1">begin</beam>
				<lyric default-y="-105" number="1">
					<syllabic>single</syllabic>
					<text>soll</text>
				</lyric>
			</note>
			<note>
				<pitch>
					<step>F</step>
					<alter>1</alter>
					<octave>4</octave>
				</pitch>
				<duration>240</duration>
				<voice>2</voice>
				<type>eighth</type>
				<stem>down</stem>
				<staff>1</staff>
				<beam number="1">end</beam>
			</note>
			<note>
				<pitch>
					<step>G</step>
					<octave>4</octave>
				</pitch>
				<duration>480</duration>
				<voice>2</voice>
				<type>quarter</type>
				<stem>down</stem>
				<staff>1</staff>
				<lyric default-y="-105" number="1">
					<syllabic>single</syllabic>
					<text>ich</text>
				</lyric>
			</note>
			<backup>
				<duration>1920</duration>
			</backup>
			<note>
				<pitch>
					<step>D</step>
					<octave>4</octave>
				</pitch>
				<duration>480</duration>
				<voice>3</voice>
				<type>quarter</type>
				<stem>up</stem>
				<staff>2</staff>
			</note>
			<note>
				<pitch>
					<step>D</step>
					<octave>4</octave>
				</pitch>
				<duration>240</duration>
				<voice>3</voice>
				<type>eighth</type>
				<stem>up</stem>
				<staff>2</staff>
				<beam number="1">begin</beam>
			</note>
			<note>
				<pitch>
					<step>B</step>
					<octave>3</octave>
				</pitch>
				<duration>240</duration>
				<voice>3</voice>
				<type>eighth</type>
				<stem>up</stem>
				<staff>2</staff>
				<beam number="1">end</beam>
			</note>
			<note>
				<pitch>
					<step>C</step>
					<octave>4</octave>
				</pitch>
				<duration>240</duration>
				<voice>3</voice>
				<type>eighth</type>
				<stem>up</stem>
				<staff>2</staff>
				<beam number="1">begin</beam>
			</note>
			<note>
				<pitch>
					<step>D</step>
					<octave>4</octave>
				</pitch>
				<duration>240</duration>
				<voice>3</voice>
				<type>eighth</type>
				<stem>up</stem>
				<staff>2</staff>
				<beam number="1">end</beam>
			</note>
			<note>
				<pitch>
					<step>D</step>
					<octave>4</octave>
				</pitch>
				<duration>480</duration>
				<voice>3</voice>
				<type>quarter</type>
				<stem>up</stem>
				<staff>2</staff>
			</note>
			<backup>
				<duration>1920</duration>
			</backup>
			<note>
				<pitch>
					<step>G</step>
					<octave>2</octave>
				</pitch>
				<duration>240</duration>
				<voice>4</voice>
				<type>eighth</type>
				<stem>down</stem>
				<staff>2</staff>
				<beam number="1">begin</beam>
			</note>
			<note>
				<pitch>
					<step>A</step>
					<octave>2</octave>
				</pitch>
				<duration>240</duration>
				<voice>4</voice>
				<type>eighth</type>
				<stem>down</stem>
				<staff>2</staff>
				<beam number="1">end</beam>
			</note>
			<note>
				<pitch>
					<step>B</step>
					<octave>2</octave>
				</pitch>
				<duration>240</duration>
				<voice>4</voice>
				<type>eighth</type>
				<stem>down</stem>
				<staff>2</staff>
				<beam number="1">begin</beam>
			</note>
			<note>
				<pitch>
					<step>E</step>
					<octave>3</octave>
				</pitch>
				<duration>240</duration>
				<voice>4</voice>
				<type>eighth</type>
				<stem>down</stem>
				<staff>2</staff>
				<beam number="1">end</beam>
			</note>
			<note>
				<pitch>
					<step>A</step>
					<octave>2</octave>
				</pitch>
				<duration>240</duration>
				<voice>4</voice>
				<type>eighth</type>
				<stem>down</stem>
				<staff>2</staff>
				<beam number="1">begin</beam>
			</note>
			<note>
				<pitch>
					<step>D</step>
					<octave>3</octave>
				</pitch>
				<duration>240</duration>
				<voice>4</voice>
				<type>eighth</type>
				<stem>down</stem>
				<staff>2</staff>
				<beam number="1">end</beam>
			</note>
			<note>
				<pitch>
					<step>G</step>
					<octave>2</octave>
				</pitch>
				<duration>240</duration>
				<voice>4</voice>
				<type>eighth</type>
				<stem>down</stem>
				<staff>2</staff>
				<beam number="1">begin</beam>
			</note>
			<note>
				<pitch>
					<step>B</step>
					<octave>2</octave>
				</pitch>
				<duration>240</duration>
				<voice>4</voice>
				<type>eighth</type>
				<stem>down</stem>
				<staff>2</staff>
				<beam number="1">end</beam>
			</note>
		</measure>
		<measure number="4">
			<note>
				<pitch>
					<step>A</step>
					<octave>4</octave>
				</pitch>
				<duration>720</duration>
				<voice>1</voice>
				<type>quarter</type>
				<dot/>
				<stem>up</stem>
				<staff>1</staff>
			</note>
			<note>
				<pitch>
					<step>A</step>
					<octave>4</octave>
				</pitch>
				<duration>240</duration>
				<voice>1</voice>
				<type>eighth</type>
				<stem>up</stem>
				<staff>1</staff>
			</note>
			<note>
				<pitch>
					<step>G</step>
					<octave>4</octave>
				</pitch>
				<duration>960</duration>
				<voice>1</voice>
				<type>half</type>
				<stem>up</stem>
				<staff>1</staff>
				<notations>
					<fermata type="upright"/>
				</notations>
			</note>
			<backup>
				<duration>1920</duration>
			</backup>
			<note>
				<pitch>
					<step>G</step>
					<octave>4</octave>
				</pitch>
				<duration>480</duration>
				<voice>2</voice>
				<type>quarter</type>
				<stem>down</stem>
				<staff>1</staff>
				<lyric default-y="-105" number="1">
					<syllabic>begin</syllabic>
					<text>fan</text>
				</lyric>
			</note>
			<note>
				<pitch>
					<step>F</step>
					<alter>1</alter>
					<octave>4</octave>
				</pitch>
				<duration>480</duration>
				<voice>2</voice>
				<type>quarter</type>
				<stem>down</stem>
				<staff>1</staff>
				<lyric default-y="-105" number="1">
					<syllabic>end</syllabic>
					<text>gen</text>
				</lyric>
			</note>
			<note>
				<pitch>
					<step>D</step>
					<octave>4</octave>
				</pitch>
				<duration>960</duration>
				<voice>2</voice>
				<type>half</type>
				<stem>down</stem>
				<staff>1</staff>
				<lyric default-y="-105" number="1">
					<syllabic>single</syllabic>
					<text>an,</text>
				</lyric>
			</note>
			<backup>
				<duration>1920</duration>
			</backup>
			<note>
				<pitch>
					<step>E</step>
					<octave>4</octave>
				</pitch>
				<duration>240</duration>
				<voice>3</voice>
				<type>eighth</type>
				<stem>up</stem>
				<staff>2</staff>
				<beam number="1">begin</beam>
			</note>
			<note>
				<pitch>
					<step>C</step>
					<octave>4</octave>
				</pitch>
				<duration>240</duration>
				<voice>3</voice>
				<type>eighth</type>
				<stem>up</stem>
				<staff>2</staff>
				<beam number="1">end</beam>
			</note>
			<note>
				<pitch>
					<step>A</step>
					<octave>3</octave>
				</pitch>
				<duration>240</duration>
				<voice>3</voice>
				<type>eighth</type>
				<staff>2</staff>
				<beam number="1">begin</beam>
				<notations>
					<slur number="1" placement="above" type="start"/>
				</notations>
			</note>
			<note>
				<pitch>
					<step>D</step>
					<octave>4</octave>
				</pitch>
				<duration>120</duration>
				<voice>3</voice>
				<type>16th</type>
				<staff>2</staff>
				<beam number="1">continue</beam>
				<beam number="2">begin</beam>
			</note>
			<note>
				<pitch>
					<step>C</step>
					<octave>4</octave>
				</pitch>
				<duration>120</duration>
				<voice>3</voice>
				<type>16th</type>
				<staff>2</staff>
				<beam number="1">end</beam>
				<beam number="2">end</beam>
				<notations>
					<slur number="1" type="stop"/>
				</notations>
			</note>
			<note>
				<pitch>
					<step>B</step>
					<octave>3</octave>
				</pitch>
				<duration>960</duration>
				<voice>3</voice>
				<type>half</type>
				<stem>up</stem>
				<staff>2</staff>
			</note>
			<backup>
				<duration>1920</duration>
			</backup>
			<note>
				<pitch>
					<step>C</step>
					<octave>3</octave>
				</pitch>
				<duration>240</duration>
				<voice>4</voice>
				<type>eighth</type>
				<stem>down</stem>
				<staff>2</staff>
				<beam number="1">begin</beam>
			</note>
			<note>
				<pitch>
					<step>A</step>
					<octave>2</octave>
				</pitch>
				<duration>240</duration>
				<voice>4</voice>
				<type>eighth</type>
				<stem>down</stem>
				<staff>2</staff>
				<beam number="1">end</beam>
			</note>
			<note>
				<pitch>
					<step>D</step>
					<octave>3</octave>
				</pitch>
				<duration>480</duration>
				<voice>4</voice>
				<type>quarter</type>
				<stem>down</stem>
				<staff>2</staff>
			</note>
			<note>
				<pitch>
					<step>G</step>
					<octave>2</octave>
				</pitch>
				<duration>960</duration>
				<voice>4</voice>
				<type>half</type>
				<stem>down</stem>
				<staff>2</staff>
				<notations>
					<fermata type="inverted"/>
				</notations>
			</note>
		</measure>
		<measure number="5">
			<print new-system="yes">
				<system-layout>
					<system-margins>
						<left-margin>0</left-margin>
						<right-margin>0</right-margin>
					</system-margins>
					<system-distance>130</system-distance>
				</system-layout>
				<staff-layout number="1">
					<staff-distance>60</staff-distance>
				</staff-layout>
				<staff-layout number="2">
					<staff-distance>140</staff-distance>
				</staff-layout>
			</print>
			<attributes>
				<time>
					<beats>4</beats>
					<beat-type>4</beat-type>
				</time>
				<staves>2</staves>
			</attributes>
			<note>
				<pitch>
					<step>A</step>
					<octave>4</octave>
				</pitch>
				<duration>480</duration>
				<voice>1</voice>
				<type>quarter</type>
				<stem>up</stem>
				<staff>1</staff>
			</note>
			<note>
				<pitch>
					<step>A</step>
					<octave>4</octave>
				</pitch>
				<duration>480</duration>
				<voice>1</voice>
				<type>quarter</type>
				<stem>up</stem>
				<staff>1</staff>
			</note>
			<note>
				<pitch>
					<step>B</step>
					<octave>4</octave>
				</pitch>
				<duration>480</duration>
				<voice>1</voice>
				<type>quarter</type>
				<stem>up</stem>
				<staff>1</staff>
			</note>
			<note>
				<pitch>
					<step>G</step>
					<octave>4</octave>
				</pitch>
				<duration>480</duration>
				<voice>1</voice>
				<type>quarter</type>
				<stem>up</stem>
				<staff>1</staff>
			</note>
			<backup>
				<duration>1920</duration>
			</backup>
			<note>
				<pitch>
					<step>F</step>
					<alter>1</alter>
					<octave>4</octave>
				</pitch>
				<duration>480</duration>
				<voice>2</voice>
				<type>quarter</type>
				<stem>down</stem>
				<staff>1</staff>
				<lyric default-y="-115" number="1">
					<syllabic>single</syllabic>
					<text>mein</text>
				</lyric>
			</note>
			<note>
				<pitch>
					<step>E</step>
					<octave>4</octave>
				</pitch>
				<duration>480</duration>
				<voice>2</voice>
				<type>quarter</type>
				<stem>down</stem>
				<staff>1</staff>
				<lyric default-y="-115" number="1">
					<syllabic>begin</syllabic>
					<text>Ge</text>
				</lyric>
			</note>
			<note>
				<pitch>
					<step>D</step>
					<alter>1</alter>
					<octave>4</octave>
				</pitch>
				<duration>240</duration>
				<voice>2</voice>
				<type>eighth</type>
				<accidental>sharp</accidental>
				<stem>down</stem>
				<staff>1</staff>
				<beam number="1">begin</beam>
				<lyric default-y="-115" number="1">
					<syllabic>end</syllabic>
					<text>wis</text>
				</lyric>
			</note>
			<note>
				<pitch>
					<step>F</step>
					<alter>1</alter>
					<octave>4</octave>
				</pitch>
				<duration>240</duration>
				<voice>2</voice>
				<type>eighth</type>
				<stem>down</stem>
				<staff>1</staff>
				<beam number="1">end</beam>
			</note>
			<note>
				<pitch>
					<step>B</step>
					<octave>3</octave>
				</pitch>
				<duration>240</duration>
				<voice>2</voice>
				<type>eighth</type>
				<stem>down</stem>
				<staff>1</staff>
				<beam number="1">begin</beam>
				<notations>
					<slur number="1" placement="below" type="start"/>
				</notations>
				<lyric default-y="-115" number="1">
					<syllabic>single</syllabic>
					<text>sen</text>
				</lyric>
			</note>
			<note>
				<pitch>
					<step>E</step>
					<octave>4</octave>
				</pitch>
				<duration>120</duration>
				<voice>2</voice>
				<type>16th</type>
				<stem>down</stem>
				<staff>1</staff>
				<beam number="1">continue</beam>
				<beam number="2">begin</beam>
			</note>
			<note>
				<pitch>
					<step>D</step>
					<alter>1</alter>
					<octave>4</octave>
				</pitch>
				<duration>120</duration>
				<voice>2</voice>
				<type>16th</type>
				<stem>down</stem>
				<staff>1</staff>
				<beam number="1">end</beam>
				<beam number="2">end</beam>
				<notations>
					<slur number="1" type="stop"/>
				</notations>
			</note>
			<backup>
				<duration>1920</duration>
			</backup>
			<note>
				<pitch>
					<step>D</step>
					<octave>4</octave>
				</pitch>
				<duration>480</duration>
				<voice>3</voice>
				<type>quarter</type>
				<stem>up</stem>
				<staff>2</staff>
			</note>
			<note>
				<pitch>
					<step>A</step>
					<octave>3</octave>
				</pitch>
				<duration>480</duration>
				<voice>3</voice>
				<type>quarter</type>
				<stem>up</stem>
				<staff>2</staff>
			</note>
			<note>
				<pitch>
					<step>A</step>
					<octave>3</octave>
				</pitch>
				<duration>240</duration>
				<voice>3</voice>
				<type>eighth</type>
				<stem>up</stem>
				<staff>2</staff>
				<beam number="1">begin</beam>
				<notations>
					<slur number="1" placement="above" type="start"/>
				</notations>
			</note>
			<note>
				<pitch>
					<step>G</step>
					<octave>3</octave>
				</pitch>
				<duration>120</duration>
				<voice>3</voice>
				<type>16th</type>
				<stem>up</stem>
				<staff>2</staff>
				<beam number="1">continue</beam>
				<beam number="2">begin</beam>
			</note>
			<note>
				<pitch>
					<step>F</step>
					<alter>1</alter>
					<octave>3</octave>
				</pitch>
				<duration>120</duration>
				<voice>3</voice>
				<type>16th</type>
				<stem>up</stem>
				<staff>2</staff>
				<beam number="1">end</beam>
				<beam number="2">end</beam>
				<notations>
					<slur number="1" type="stop"/>
				</notations>
			</note>
			<note>
				<pitch>
					<step>G</step>
					<octave>3</octave>
				</pitch>
				<duration>240</duration>
				<voice>3</voice>
				<type>eighth</type>
				<stem>up</stem>
				<staff>2</staff>
				<beam number="1">begin</beam>
			</note>
			<note>
				<pitch>
					<step>C</step>
					<octave>4</octave>
				</pitch>
				<duration>240</duration>
				<voice>3</voice>
				<type>eighth</type>
				<stem>up</stem>
				<staff>2</staff>
				<beam number="1">end</beam>
			</note>
			<backup>
				<duration>1920</duration>
			</backup>
			<note>
				<pitch>
					<step>F</step>
					<alter>1</alter>
					<octave>3</octave>
				</pitch>
				<duration>240</duration>
				<voice>4</voice>
				<type>eighth</type>
				<stem>down</stem>
				<staff>2</staff>
				<beam number="1">begin</beam>
			</note>
			<note>
				<pitch>
					<step>E</step>
					<octave>3</octave>
				</pitch>
				<duration>240</duration>
				<voice>4</voice>
				<type>eighth</type>
				<stem>down</stem>
				<staff>2</staff>
				<beam number="1">end</beam>
			</note>
			<note>
				<pitch>
					<step>D</step>
					<octave>3</octave>
				</pitch>
				<duration>240</duration>
				<voice>4</voice>
				<type>eighth</type>
				<stem>down</stem>
				<staff>2</staff>
				<beam number="1">begin</beam>
			</note>
			<note>
				<pitch>
					<step>C</step>
					<octave>3</octave>
				</pitch>
				<duration>240</duration>
				<voice>4</voice>
				<type>eighth</type>
				<stem>down</stem>
				<staff>2</staff>
				<beam number="1">end</beam>
			</note>
			<note>
				<pitch>
					<step>B</step>
					<octave>2</octave>
				</pitch>
				<duration>240</duration>
				<voice>4</voice>
				<type>eighth</type>
				<stem>down</stem>
				<staff>2</staff>
				<beam number="1">begin</beam>
			</note>
			<note>
				<pitch>
					<step>D</step>
					<alter>1</alter>
					<octave>3</octave>
				</pitch>
				<duration>240</duration>
				<voice>4</voice>
				<type>eighth</type>
				<accidental>sharp</accidental>
				<stem>down</stem>
				<staff>2</staff>
				<beam number="1">end</beam>
			</note>
			<note>
				<pitch>
					<step>E</step>
					<octave>3</octave>
				</pitch>
				<duration>240</duration>
				<voice>4</voice>
				<type>eighth</type>
				<stem>down</stem>
				<staff>2</staff>
				<beam number="1">begin</beam>
			</note>
			<note>
				<pitch>
					<step>C</step>
					<octave>3</octave>
				</pitch>
				<duration>240</duration>
				<voice>4</voice>
				<type>eighth</type>
				<stem>down</stem>
				<staff>2</staff>
				<beam number="1">end</beam>
			</note>
		</measure>
		<measure number="6">
			<note>
				<pitch>
					<step>F</step>
					<alter>1</alter>
					<octave>4</octave>
				</pitch>
				<duration>720</duration>
				<voice>1</voice>
				<type>quarter</type>
				<dot/>
				<stem>up</stem>
				<staff>1</staff>
			</note>
			<note>
				<pitch>
					<step>F</step>
					<alter>1</alter>
					<octave>4</octave>
				</pitch>
				<duration>240</duration>
				<voice>1</voice>
				<type>eighth</type>
				<stem>up</stem>
				<staff>1</staff>
			</note>
			<note>
				<pitch>
					<step>E</step>
					<octave>4</octave>
				</pitch>
				<duration>960</duration>
				<voice>1</voice>
				<type>half</type>
				<stem>up</stem>
				<staff>1</staff>
				<notations>
					<fermata type="upright"/>
				</notations>
			</note>
			<backup>
				<duration>1920</duration>
			</backup>
			<note>
				<pitch>
					<step>E</step>
					<octave>4</octave>
				</pitch>
				<duration>480</duration>
				<voice>2</voice>
				<type>quarter</type>
				<stem>down</stem>
				<staff>1</staff>
				<lyric default-y="-115" number="1">
					<syllabic>single</syllabic>
					<text>klagt</text>
				</lyric>
			</note>
			<note>
				<pitch>
					<step>D</step>
					<alter>1</alter>
					<octave>4</octave>
				</pitch>
				<duration>480</duration>
				<voice>2</voice>
				<type>quarter</type>
				<accidental>sharp</accidental>
				<stem>down</stem>
				<staff>1</staff>
				<lyric default-y="-115" number="1">
					<syllabic>single</syllabic>
					<text>mich</text>
				</lyric>
			</note>
			<note>
				<pitch>
					<step>B</step>
					<octave>3</octave>
				</pitch>
				<duration>960</duration>
				<voice>2</voice>
				<type>half</type>
				<stem>down</stem>
				<staff>1</staff>
				<lyric default-y="-115" number="1">
					<syllabic>single</syllabic>
					<text>an,</text>
				</lyric>
			</note>
			<backup>
				<duration>1920</duration>
			</backup>
			<note>
				<pitch>
					<step>C</step>
					<octave>4</octave>
				</pitch>
				<duration>240</duration>
				<voice>3</voice>
				<type>eighth</type>
				<stem>up</stem>
				<staff>2</staff>
				<beam number="1">begin</beam>
			</note>
			<note>
				<pitch>
					<step>A</step>
					<octave>3</octave>
				</pitch>
				<duration>240</duration>
				<voice>3</voice>
				<type>eighth</type>
				<stem>up</stem>
				<staff>2</staff>
				<beam number="1">end</beam>
			</note>
			<note>
				<pitch>
					<step>F</step>
					<alter>1</alter>
					<octave>3</octave>
				</pitch>
				<duration>240</duration>
				<voice>3</voice>
				<type>eighth</type>
				<stem>up</stem>
				<staff>2</staff>
				<beam number="1">begin</beam>
				<notations>
					<slur number="1" placement="above" type="start"/>
				</notations>
			</note>
			<note>
				<pitch>
					<step>B</step>
					<octave>3</octave>
				</pitch>
				<duration>120</duration>
				<voice>3</voice>
				<type>16th</type>
				<stem>up</stem>
				<staff>2</staff>
				<beam number="1">continue</beam>
				<beam number="2">begin</beam>
			</note>
			<note>
				<pitch>
					<step>A</step>
					<octave>3</octave>
				</pitch>
				<duration>120</duration>
				<voice>3</voice>
				<type>16th</type>
				<stem>up</stem>
				<staff>2</staff>
				<beam number="1">end</beam>
				<beam number="2">end</beam>
				<notations>
					<slur number="1" type="stop"/>
				</notations>
			</note>
			<note>
				<pitch>
					<step>G</step>
					<octave>3</octave>
				</pitch>
				<duration>960</duration>
				<voice>3</voice>
				<type>half</type>
				<stem>up</stem>
				<staff>2</staff>
			</note>
			<backup>
				<duration>1920</duration>
			</backup>
			<note>
				<pitch>
					<step>A</step>
					<octave>2</octave>
				</pitch>
				<duration>240</duration>
				<voice>4</voice>
				<type>eighth</type>
				<stem>down</stem>
				<staff>2</staff>
				<beam number="1">begin</beam>
			</note>
			<note>
				<pitch>
					<step>F</step>
					<alter>1</alter>
					<octave>2</octave>
				</pitch>
				<duration>240</duration>
				<voice>4</voice>
				<type>eighth</type>
				<stem>down</stem>
				<staff>2</staff>
				<beam number="1">end</beam>
			</note>
			<note>
				<pitch>
					<step>B</step>
					<octave>2</octave>
				</pitch>
				<duration>480</duration>
				<voice>4</voice>
				<type>quarter</type>
				<stem>down</stem>
				<staff>2</staff>
			</note>
			<note>
				<pitch>
					<step>E</step>
					<octave>2</octave>
				</pitch>
				<duration>960</duration>
				<voice>4</voice>
				<type>half</type>
				<stem>down</stem>
				<staff>2</staff>
				<notations>
					<fermata type="inverted"/>
				</notations>
			</note>
		</measure>
		<measure number="7">
			<note>
				<pitch>
					<step>E</step>
					<octave>5</octave>
				</pitch>
				<duration>480</duration>
				<voice>1</voice>
				<type>quarter</type>
				<stem>up</stem>
				<staff>1</staff>
			</note>
			<note>
				<pitch>
					<step>E</step>
					<octave>5</octave>
				</pitch>
				<duration>480</duration>
				<voice>1</voice>
				<type>quarter</type>
				<stem>up</stem>
				<staff>1</staff>
			</note>
			<note>
				<pitch>
					<step>D</step>
					<octave>5</octave>
				</pitch>
				<duration>480</duration>
				<voice>1</voice>
				<type>quarter</type>
				<accidental cautionary="yes">natural</accidental>
				<stem>up</stem>
				<staff>1</staff>
			</note>
			<note>
				<pitch>
					<step>D</step>
					<octave>5</octave>
				</pitch>
				<duration>480</duration>
				<voice>1</voice>
				<type>quarter</type>
				<stem>up</stem>
				<staff>1</staff>
			</note>
			<backup>
				<duration>1920</duration>
			</backup>
			<note>
				<pitch>
					<step>G</step>
					<octave>4</octave>
				</pitch>
				<duration>480</duration>
				<voice>2</voice>
				<type>quarter</type>
				<stem>down</stem>
				<staff>1</staff>
				<lyric default-y="-115" number="1">
					<syllabic>single</syllabic>
					<text>es</text>
				</lyric>
			</note>
			<note>
				<pitch>
					<step>G</step>
					<octave>4</octave>
				</pitch>
				<duration>480</duration>
				<voice>2</voice>
				<type>quarter</type>
				<stem>down</stem>
				<staff>1</staff>
				<lyric default-y="-115" number="1">
					<syllabic>begin</syllabic>
					<text>be</text>
				</lyric>
			</note>
			<note>
				<pitch>
					<step>F</step>
					<alter>1</alter>
					<octave>4</octave>
				</pitch>
				<duration>480</duration>
				<voice>2</voice>
				<type>quarter</type>
				<stem>down</stem>
				<staff>1</staff>
				<lyric default-y="-115" number="1">
					<syllabic>middle</syllabic>
					<text>gin</text>
				</lyric>
			</note>
			<note>
				<pitch>
					<step>F</step>
					<alter>1</alter>
					<octave>4</octave>
				</pitch>
				<duration>480</duration>
				<voice>2</voice>
				<type>quarter</type>
				<stem>down</stem>
				<staff>1</staff>
				<lyric default-y="-115" number="1">
					<syllabic>end</syllabic>
					<text>net</text>
				</lyric>
			</note>
			<backup>
				<duration>1920</duration>
			</backup>
			<note>
				<pitch>
					<step>B</step>
					<octave>3</octave>
				</pitch>
				<duration>480</duration>
				<voice>3</voice>
				<type>quarter</type>
				<stem>up</stem>
				<staff>2</staff>
			</note>
			<note>
				<pitch>
					<step>B</step>
					<octave>3</octave>
				</pitch>
				<duration>480</duration>
				<voice>3</voice>
				<type>quarter</type>
				<stem>up</stem>
				<staff>2</staff>
			</note>
			<note>
				<pitch>
					<step>B</step>
					<octave>3</octave>
				</pitch>
				<duration>480</duration>
				<voice>3</voice>
				<type>quarter</type>
				<stem>up</stem>
				<staff>2</staff>
			</note>
			<note>
				<pitch>
					<step>B</step>
					<octave>3</octave>
				</pitch>
				<duration>480</duration>
				<voice>3</voice>
				<type>quarter</type>
				<stem>up</stem>
				<staff>2</staff>
			</note>
			<backup>
				<duration>1920</duration>
			</backup>
			<note>
				<pitch>
					<step>E</step>
					<octave>2</octave>
				</pitch>
				<duration>240</duration>
				<voice>4</voice>
				<type>eighth</type>
				<stem>down</stem>
				<staff>2</staff>
				<beam number="1">begin</beam>
			</note>
			<note>
				<pitch>
					<step>F</step>
					<alter>1</alter>
					<octave>2</octave>
				</pitch>
				<duration>240</duration>
				<voice>4</voice>
				<type>eighth</type>
				<stem>down</stem>
				<staff>2</staff>
				<beam number="1">end</beam>
			</note>
			<note>
				<pitch>
					<step>G</step>
					<octave>2</octave>
				</pitch>
				<duration>240</duration>
				<voice>4</voice>
				<type>eighth</type>
				<stem>down</stem>
				<staff>2</staff>
				<beam number="1">begin</beam>
			</note>
			<note>
				<pitch>
					<step>A</step>
					<octave>2</octave>
				</pitch>
				<duration>240</duration>
				<voice>4</voice>
				<type>eighth</type>
				<stem>down</stem>
				<staff>2</staff>
				<beam number="1">end</beam>
			</note>
			<note>
				<pitch>
					<step>B</step>
					<octave>2</octave>
				</pitch>
				<duration>240</duration>
				<voice>4</voice>
				<type>eighth</type>
				<stem>down</stem>
				<staff>2</staff>
				<beam number="1">begin</beam>
			</note>
			<note>
				<pitch>
					<step>C</step>
					<alter>1</alter>
					<octave>3</octave>
				</pitch>
				<duration>240</duration>
				<voice>4</voice>
				<type>eighth</type>
				<accidental>sharp</accidental>
				<stem>down</stem>
				<staff>2</staff>
				<beam number="1">end</beam>
			</note>
			<note>
				<pitch>
					<step>D</step>
					<octave>3</octave>
				</pitch>
				<duration>240</duration>
				<voice>4</voice>
				<type>eighth</type>
				<accidental cautionary="yes">natural</accidental>
				<stem>down</stem>
				<staff>2</staff>
				<beam number="1">begin</beam>
			</note>
			<note>
				<pitch>
					<step>B</step>
					<octave>2</octave>
				</pitch>
				<duration>240</duration>
				<voice>4</voice>
				<type>eighth</type>
				<stem>down</stem>
				<staff>2</staff>
				<beam number="1">end</beam>
			</note>
		</measure>
		<measure number="8">
			<note>
				<pitch>
					<step>C</step>
					<alter>1</alter>
					<octave>5</octave>
				</pitch>
				<duration>480</duration>
				<voice>1</voice>
				<type>quarter</type>
				<accidental>sharp</accidental>
				<stem>up</stem>
				<staff>1</staff>
			</note>
			<note>
				<pitch>
					<step>C</step>
					<alter>1</alter>
					<octave>5</octave>
				</pitch>
				<duration>480</duration>
				<voice>1</voice>
				<type>quarter</type>
				<stem>up</stem>
				<staff>1</staff>
			</note>
			<note>
				<pitch>
					<step>B</step>
					<octave>4</octave>
				</pitch>
				<duration>480</duration>
				<voice>1</voice>
				<type>quarter</type>
				<stem>up</stem>
				<staff>1</staff>
			</note>
			<note>
				<pitch>
					<step>B</step>
					<octave>4</octave>
				</pitch>
				<duration>480</duration>
				<voice>1</voice>
				<type>quarter</type>
				<stem>up</stem>
				<staff>1</staff>
				<notations>
					<fermata type="upright"/>
				</notations>
			</note>
			<backup>
				<duration>1920</duration>
			</backup>
			<note>
				<pitch>
					<step>G</step>
					<octave>4</octave>
				</pitch>
				<duration>480</duration>
				<voice>2</voice>
				<type>quarter</type>
				<stem>down</stem>
				<staff>1</staff>
				<lyric default-y="-115" number="1">
					<syllabic>begin</syllabic>
					<text>auf</text>
				</lyric>
			</note>
			<note>
				<pitch>
					<step>F</step>
					<alter>1</alter>
					<octave>4</octave>
				</pitch>
				<duration>480</duration>
				<voice>2</voice>
				<type>quarter</type>
				<stem>down</stem>
				<staff>1</staff>
				<lyric default-y="-115" number="1">
					<syllabic>middle</syllabic>
					<text>zu</text>
				</lyric>
			</note>
			<note>
				<pitch>
					<step>F</step>
					<alter>1</alter>
					<octave>4</octave>
				</pitch>
				<duration>480</duration>
				<voice>2</voice>
				<type>quarter</type>
				<stem>down</stem>
				<staff>1</staff>
				<lyric default-y="-115" number="1">
					<syllabic>middle</syllabic>
					<text>wa</text>
				</lyric>
			</note>
			<note>
				<pitch>
					<step>F</step>
					<alter>1</alter>
					<octave>4</octave>
				</pitch>
				<duration>480</duration>
				<voice>2</voice>
				<type>quarter</type>
				<stem>down</stem>
				<staff>1</staff>
				<lyric default-y="-115" number="1">
					<syllabic>end</syllabic>
					<text>chen:</text>
				</lyric>
			</note>
			<backup>
				<duration>1920</duration>
			</backup>
			<note>
				<pitch>
					<step>B</step>
					<octave>3</octave>
				</pitch>
				<duration>720</duration>
				<voice>3</voice>
				<type>quarter</type>
				<dot/>
				<stem>up</stem>
				<staff>2</staff>
			</note>
			<note>
				<pitch>
					<step>A</step>
					<alter>1</alter>
					<octave>3</octave>
				</pitch>
				<duration>240</duration>
				<voice>3</voice>
				<type>eighth</type>
				<accidental>sharp</accidental>
				<stem>up</stem>
				<staff>2</staff>
			</note>
			<note>
				<pitch>
					<step>D</step>
					<octave>4</octave>
				</pitch>
				<duration>480</duration>
				<voice>3</voice>
				<type>quarter</type>
				<stem>up</stem>
				<staff>2</staff>
			</note>
			<note>
				<pitch>
					<step>D</step>
					<octave>4</octave>
				</pitch>
				<duration>480</duration>
				<voice>3</voice>
				<type>quarter</type>
				<stem>up</stem>
				<staff>2</staff>
			</note>
			<backup>
				<duration>1920</duration>
			</backup>
			<note>
				<pitch>
					<step>E</step>
					<octave>3</octave>
				</pitch>
				<duration>240</duration>
				<voice>4</voice>
				<type>eighth</type>
				<stem>down</stem>
				<staff>2</staff>
				<beam number="1">begin</beam>
			</note>
			<note>
				<pitch>
					<step>C</step>
					<alter>1</alter>
					<octave>3</octave>
				</pitch>
				<duration>240</duration>
				<voice>4</voice>
				<type>eighth</type>
				<accidental>sharp</accidental>
				<stem>down</stem>
				<staff>2</staff>
				<beam number="1">end</beam>
			</note>
			<note>
				<pitch>
					<step>F</step>
					<alter>1</alter>
					<octave>3</octave>
				</pitch>
				<duration>480</duration>
				<voice>4</voice>
				<type>quarter</type>
				<stem>down</stem>
				<staff>2</staff>
			</note>
			<note>
				<pitch>
					<step>B</step>
					<octave>2</octave>
				</pitch>
				<duration>480</duration>
				<voice>4</voice>
				<type>quarter</type>
				<stem>down</stem>
				<staff>2</staff>
			</note>
			<note>
				<pitch>
					<step>B</step>
					<octave>2</octave>
				</pitch>
				<duration>480</duration>
				<voice>4</voice>
				<type>quarter</type>
				<stem>down</stem>
				<staff>2</staff>
				<notations>
					<fermata type="inverted"/>
				</notations>
			</note>
		</measure>
		<measure number="9">
			<print new-system="yes">
				<system-layout>
					<system-margins>
						<left-margin>0</left-margin>
						<right-margin>0</right-margin>
					</system-margins>
					<system-distance>130</system-distance>
				</system-layout>
				<staff-layout number="1">
					<staff-distance>60</staff-distance>
				</staff-layout>
				<staff-layout number="2">
					<staff-distance>140</staff-distance>
				</staff-layout>
			</print>
			<note>
				<pitch>
					<step>D</step>
					<octave>5</octave>
				</pitch>
				<duration>480</duration>
				<voice>1</voice>
				<type>quarter</type>
				<stem>up</stem>
				<staff>1</staff>
			</note>
			<note>
				<pitch>
					<step>D</step>
					<octave>5</octave>
				</pitch>
				<duration>480</duration>
				<voice>1</voice>
				<type>quarter</type>
				<stem>up</stem>
				<staff>1</staff>
			</note>
			<note>
				<pitch>
					<step>C</step>
					<octave>5</octave>
				</pitch>
				<duration>480</duration>
				<voice>1</voice>
				<type>quarter</type>
				<accidental cautionary="yes">natural</accidental>
				<stem>up</stem>
				<staff>1</staff>
			</note>
			<note>
				<pitch>
					<step>B</step>
					<octave>4</octave>
				</pitch>
				<duration>480</duration>
				<voice>1</voice>
				<type>quarter</type>
				<stem>up</stem>
				<staff>1</staff>
			</note>
			<backup>
				<duration>1920</duration>
			</backup>
			<note>
				<pitch>
					<step>F</step>
					<alter>1</alter>
					<octave>4</octave>
				</pitch>
				<duration>480</duration>
				<voice>2</voice>
				<type>quarter</type>
				<stem>down</stem>
				<staff>1</staff>
				<lyric default-y="-105" number="1">
					<syllabic>single</syllabic>
					<text>dies</text>
				</lyric>
			</note>
			<note>
				<pitch>
					<step>G</step>
					<octave>4</octave>
				</pitch>
				<duration>480</duration>
				<voice>2</voice>
				<type>quarter</type>
				<stem>down</stem>
				<staff>1</staff>
				<lyric default-y="-105" number="1">
					<syllabic>single</syllabic>
					<text>ist</text>
				</lyric>
			</note>
			<note>
				<pitch>
					<step>G</step>
					<octave>4</octave>
				</pitch>
				<duration>240</duration>
				<voice>2</voice>
				<type>eighth</type>
				<stem>down</stem>
				<staff>1</staff>
				<beam number="1">begin</beam>
				<lyric default-y="-105" number="1">
					<syllabic>single</syllabic>
					<text>mei</text>
				</lyric>
			</note>
			<note>
				<pitch>
					<step>A</step>
					<octave>4</octave>
				</pitch>
				<duration>240</duration>
				<voice>2</voice>
				<type>eighth</type>
				<stem>down</stem>
				<staff>1</staff>
				<beam number="1">end</beam>
			</note>
			<note>
				<pitch>
					<step>A</step>
					<octave>4</octave>
				</pitch>
				<duration>240</duration>
				<voice>2</voice>
				<type>eighth</type>
				<stem>down</stem>
				<staff>1</staff>
				<beam number="1">begin</beam>
				<lyric default-y="-105" number="1">
					<syllabic>single</syllabic>
					<text>ne</text>
				</lyric>
			</note>
			<note>
				<pitch>
					<step>G</step>
					<octave>4</octave>
				</pitch>
				<duration>240</duration>
				<voice>2</voice>
				<type>eighth</type>
				<stem>down</stem>
				<staff>1</staff>
				<beam number="1">end</beam>
			</note>
			<backup>
				<duration>1920</duration>
			</backup>
			<note>
				<pitch>
					<step>D</step>
					<octave>4</octave>
				</pitch>
				<duration>240</duration>
				<voice>3</voice>
				<type>eighth</type>
				<stem>up</stem>
				<staff>2</staff>
				<beam number="1">begin</beam>
			</note>
			<note>
				<pitch>
					<step>C</step>
					<octave>4</octave>
				</pitch>
				<duration>240</duration>
				<voice>3</voice>
				<type>eighth</type>
				<accidental cautionary="yes">natural</accidental>
				<stem>up</stem>
				<staff>2</staff>
				<beam number="1">end</beam>
			</note>
			<note>
				<pitch>
					<step>B</step>
					<octave>3</octave>
				</pitch>
				<duration>480</duration>
				<voice>3</voice>
				<type>quarter</type>
				<stem>up</stem>
				<staff>2</staff>
			</note>
			<note>
				<pitch>
					<step>E</step>
					<octave>4</octave>
				</pitch>
				<duration>240</duration>
				<voice>3</voice>
				<type>eighth</type>
				<stem>up</stem>
				<staff>2</staff>
				<beam number="1">begin</beam>
			</note>
			<note>
				<pitch>
					<step>D</step>
					<octave>4</octave>
				</pitch>
				<duration>240</duration>
				<voice>3</voice>
				<type>eighth</type>
				<stem>up</stem>
				<staff>2</staff>
				<beam number="1">end</beam>
			</note>
			<note>
				<pitch>
					<step>D</step>
					<octave>4</octave>
				</pitch>
				<duration>240</duration>
				<voice>3</voice>
				<type>eighth</type>
				<stem>up</stem>
				<staff>2</staff>
				<beam number="1">begin</beam>
			</note>
			<note>
				<pitch>
					<step>E</step>
					<octave>4</octave>
				</pitch>
				<duration>240</duration>
				<voice>3</voice>
				<type>eighth</type>
				<stem>up</stem>
				<staff>2</staff>
				<beam number="1">end</beam>
			</note>
			<backup>
				<duration>1920</duration>
			</backup>
			<note>
				<pitch>
					<step>B</step>
					<octave>3</octave>
				</pitch>
				<duration>240</duration>
				<voice>4</voice>
				<type>eighth</type>
				<stem>down</stem>
				<staff>2</staff>
				<beam number="1">begin</beam>
			</note>
			<note>
				<pitch>
					<step>A</step>
					<octave>3</octave>
				</pitch>
				<duration>240</duration>
				<voice>4</voice>
				<type>eighth</type>
				<stem>down</stem>
				<staff>2</staff>
				<beam number="1">end</beam>
			</note>
			<note>
				<pitch>
					<step>G</step>
					<octave>3</octave>
				</pitch>
				<duration>240</duration>
				<voice>4</voice>
				<type>eighth</type>
				<stem>down</stem>
				<staff>2</staff>
				<beam number="1">begin</beam>
			</note>
			<note>
				<pitch>
					<step>F</step>
					<alter>1</alter>
					<octave>3</octave>
				</pitch>
				<duration>240</duration>
				<voice>4</voice>
				<type>eighth</type>
				<stem>down</stem>
				<staff>2</staff>
				<beam number="1">end</beam>
			</note>
			<note>
				<pitch>
					<step>E</step>
					<octave>3</octave>
				</pitch>
				<duration>240</duration>
				<voice>4</voice>
				<type>eighth</type>
				<stem>down</stem>
				<staff>2</staff>
				<beam number="1">begin</beam>
			</note>
			<note>
				<pitch>
					<step>F</step>
					<alter>1</alter>
					<octave>3</octave>
				</pitch>
				<duration>240</duration>
				<voice>4</voice>
				<type>eighth</type>
				<stem>down</stem>
				<staff>2</staff>
				<beam number="1">end</beam>
			</note>
			<note>
				<pitch>
					<step>G</step>
					<octave>3</octave>
				</pitch>
				<duration>240</duration>
				<voice>4</voice>
				<type>eighth</type>
				<stem>down</stem>
				<staff>2</staff>
				<beam number="1">begin</beam>
			</note>
			<note>
				<pitch>
					<step>E</step>
					<octave>3</octave>
				</pitch>
				<duration>240</duration>
				<voice>4</voice>
				<type>eighth</type>
				<stem>down</stem>
				<staff>2</staff>
				<beam number="1">end</beam>
			</note>
		</measure>
		<measure number="10">
			<note>
				<pitch>
					<step>A</step>
					<octave>4</octave>
				</pitch>
				<duration>720</duration>
				<voice>1</voice>
				<type>quarter</type>
				<dot/>
				<stem>up</stem>
				<staff>1</staff>
			</note>
			<note>
				<pitch>
					<step>A</step>
					<octave>4</octave>
				</pitch>
				<duration>240</duration>
				<voice>1</voice>
				<type>eighth</type>
				<stem>up</stem>
				<staff>1</staff>
			</note>
			<note>
				<pitch>
					<step>G</step>
					<octave>4</octave>
				</pitch>
				<duration>960</duration>
				<voice>1</voice>
				<type>half</type>
				<stem>up</stem>
				<staff>1</staff>
				<notations>
					<fermata type="upright"/>
				</notations>
			</note>
			<backup>
				<duration>1920</duration>
			</backup>
			<note>
				<pitch>
					<step>G</step>
					<octave>4</octave>
				</pitch>
				<duration>480</duration>
				<voice>2</voice>
				<type>quarter</type>
				<stem>down</stem>
				<staff>1</staff>
				<lyric default-y="-105" number="1">
					<syllabic>begin</syllabic>
					<text>Zu</text>
				</lyric>
			</note>
			<note>
				<pitch>
					<step>F</step>
					<alter>1</alter>
					<octave>4</octave>
				</pitch>
				<duration>480</duration>
				<voice>2</voice>
				<type>quarter</type>
				<stem>down</stem>
				<staff>1</staff>
				<lyric default-y="-105" number="1">
					<syllabic>middle</syllabic>
					<text>ver</text>
				</lyric>
			</note>
			<note>
				<pitch>
					<step>D</step>
					<octave>4</octave>
				</pitch>
				<duration>960</duration>
				<voice>2</voice>
				<type>half</type>
				<stem>down</stem>
				<staff>1</staff>
				<lyric default-y="-105" number="1">
					<syllabic>end</syllabic>
					<text>sicht,</text>
				</lyric>
			</note>
			<backup>
				<duration>1920</duration>
			</backup>
			<note>
				<pitch>
					<step>E</step>
					<octave>4</octave>
				</pitch>
				<duration>240</duration>
				<voice>3</voice>
				<type>eighth</type>
				<stem>up</stem>
				<staff>2</staff>
				<beam number="1">begin</beam>
			</note>
			<note>
				<pitch>
					<step>C</step>
					<octave>4</octave>
				</pitch>
				<duration>240</duration>
				<voice>3</voice>
				<type>eighth</type>
				<stem>up</stem>
				<staff>2</staff>
				<beam number="1">end</beam>
			</note>
			<note>
				<pitch>
					<step>A</step>
					<octave>3</octave>
				</pitch>
				<duration>240</duration>
				<voice>3</voice>
				<type>eighth</type>
				<staff>2</staff>
				<beam number="1">begin</beam>
				<notations>
					<slur number="1" placement="above" type="start"/>
				</notations>
			</note>
			<note>
				<pitch>
					<step>D</step>
					<octave>4</octave>
				</pitch>
				<duration>120</duration>
				<voice>3</voice>
				<type>16th</type>
				<staff>2</staff>
				<beam number="1">continue</beam>
				<beam number="2">begin</beam>
			</note>
			<note>
				<pitch>
					<step>C</step>
					<octave>4</octave>
				</pitch>
				<duration>120</duration>
				<voice>3</voice>
				<type>16th</type>
				<staff>2</staff>
				<beam number="1">end</beam>
				<beam number="2">end</beam>
				<notations>
					<slur number="1" type="stop"/>
				</notations>
			</note>
			<note>
				<pitch>
					<step>B</step>
					<octave>3</octave>
				</pitch>
				<duration>960</duration>
				<voice>3</voice>
				<type>half</type>
				<stem>up</stem>
				<staff>2</staff>
			</note>
			<backup>
				<duration>1920</duration>
			</backup>
			<note>
				<pitch>
					<step>C</step>
					<octave>3</octave>
				</pitch>
				<duration>240</duration>
				<voice>4</voice>
				<type>eighth</type>
				<stem>down</stem>
				<staff>2</staff>
				<beam number="1">begin</beam>
			</note>
			<note>
				<pitch>
					<step>A</step>
					<octave>2</octave>
				</pitch>
				<duration>240</duration>
				<voice>4</voice>
				<type>eighth</type>
				<stem>down</stem>
				<staff>2</staff>
				<beam number="1">end</beam>
			</note>
			<note>
				<pitch>
					<step>D</step>
					<octave>3</octave>
				</pitch>
				<duration>480</duration>
				<voice>4</voice>
				<type>quarter</type>
				<stem>down</stem>
				<staff>2</staff>
			</note>
			<note>
				<pitch>
					<step>G</step>
					<octave>2</octave>
				</pitch>
				<duration>960</duration>
				<voice>4</voice>
				<type>half</type>
				<stem>down</stem>
				<staff>2</staff>
				<notations>
					<fermata type="inverted"/>
				</notations>
			</note>
		</measure>
		<measure number="11">
			<note>
				<pitch>
					<step>A</step>
					<octave>4</octave>
				</pitch>
				<duration>480</duration>
				<voice>1</voice>
				<type>quarter</type>
				<stem>up</stem>
				<staff>1</staff>
			</note>
			<note>
				<pitch>
					<step>A</step>
					<octave>4</octave>
				</pitch>
				<duration>480</duration>
				<voice>1</voice>
				<type>quarter</type>
				<stem>up</stem>
				<staff>1</staff>
			</note>
			<note>
				<pitch>
					<step>B</step>
					<octave>4</octave>
				</pitch>
				<duration>480</duration>
				<voice>1</voice>
				<type>quarter</type>
				<stem>up</stem>
				<staff>1</staff>
			</note>
			<note>
				<pitch>
					<step>G</step>
					<octave>4</octave>
				</pitch>
				<duration>480</duration>
				<voice>1</voice>
				<type>quarter</type>
				<stem>up</stem>
				<staff>1</staff>
			</note>
			<backup>
				<duration>1920</duration>
			</backup>
			<note>
				<pitch>
					<step>E</step>
					<octave>4</octave>
				</pitch>
				<duration>480</duration>
				<voice>2</voice>
				<type>quarter</type>
				<stem>down</stem>
				<staff>1</staff>
				<lyric default-y="-105" number="1">
					<syllabic>begin</syllabic>
					<text>mei</text>
				</lyric>
			</note>
			<note>
				<pitch>
					<step>F</step>
					<alter>1</alter>
					<octave>4</octave>
				</pitch>
				<duration>480</duration>
				<voice>2</voice>
				<type>quarter</type>
				<stem>down</stem>
				<staff>1</staff>
				<lyric default-y="-105" number="1">
					<syllabic>end</syllabic>
					<text>nen</text>
				</lyric>
			</note>
			<note>
				<pitch>
					<step>F</step>
					<alter>1</alter>
					<octave>4</octave>
				</pitch>
				<duration>720</duration>
				<voice>2</voice>
				<type>quarter</type>
				<dot/>
				<stem>down</stem>
				<staff>1</staff>
				<lyric default-y="-105" number="1">
					<syllabic>begin</syllabic>
					<text>Je</text>
				</lyric>
			</note>
			<note>
				<pitch>
					<step>E</step>
					<octave>4</octave>
				</pitch>
				<duration>240</duration>
				<voice>2</voice>
				<type>eighth</type>
				<stem>down</stem>
				<staff>1</staff>
				<lyric default-y="-105" number="1">
					<syllabic>end</syllabic>
					<text>sum</text>
				</lyric>
			</note>
			<backup>
				<duration>1920</duration>
			</backup>
			<note>
				<pitch>
					<step>C</step>
					<alter>1</alter>
					<octave>4</octave>
				</pitch>
				<duration>480</duration>
				<voice>3</voice>
				<type>quarter</type>
				<accidental>sharp</accidental>
				<stem>up</stem>
				<staff>2</staff>
			</note>
			<note>
				<pitch>
					<step>D</step>
					<octave>4</octave>
				</pitch>
				<duration>240</duration>
				<voice>3</voice>
				<type>eighth</type>
				<stem>up</stem>
				<staff>2</staff>
				<beam number="1">begin</beam>
			</note>
			<note>
				<pitch>
					<step>C</step>
					<octave>4</octave>
				</pitch>
				<duration>240</duration>
				<voice>3</voice>
				<type>eighth</type>
				<accidental>natural</accidental>
				<stem>up</stem>
				<staff>2</staff>
				<beam number="1">end</beam>
			</note>
			<note>
				<pitch>
					<step>B</step>
					<octave>3</octave>
				</pitch>
				<duration>480</duration>
				<voice>3</voice>
				<type>quarter</type>
				<stem>up</stem>
				<staff>2</staff>
			</note>
			<note>
				<pitch>
					<step>B</step>
					<octave>3</octave>
				</pitch>
				<duration>240</duration>
				<voice>3</voice>
				<type>eighth</type>
				<stem>up</stem>
				<staff>2</staff>
				<beam number="1">begin</beam>
			</note>
			<note>
				<pitch>
					<step>C</step>
					<octave>4</octave>
				</pitch>
				<duration>240</duration>
				<voice>3</voice>
				<type>eighth</type>
				<stem>up</stem>
				<staff>2</staff>
				<beam number="1">end</beam>
			</note>
			<backup>
				<duration>1920</duration>
			</backup>
			<note>
				<pitch>
					<step>G</step>
					<octave>3</octave>
				</pitch>
				<duration>480</duration>
				<voice>4</voice>
				<type>quarter</type>
				<stem>down</stem>
				<staff>2</staff>
			</note>
			<note>
				<pitch>
					<step>F</step>
					<alter>1</alter>
					<octave>3</octave>
				</pitch>
				<duration>240</duration>
				<voice>4</voice>
				<type>eighth</type>
				<stem>down</stem>
				<staff>2</staff>
				<beam number="1">begin</beam>
			</note>
			<note>
				<pitch>
					<step>E</step>
					<octave>3</octave>
				</pitch>
				<duration>240</duration>
				<voice>4</voice>
				<type>eighth</type>
				<stem>down</stem>
				<staff>2</staff>
				<beam number="1">end</beam>
			</note>
			<note>
				<pitch>
					<step>D</step>
					<alter>1</alter>
					<octave>3</octave>
				</pitch>
				<duration>480</duration>
				<voice>4</voice>
				<type>quarter</type>
				<accidental>sharp</accidental>
				<stem>down</stem>
				<staff>2</staff>
			</note>
			<note>
				<pitch>
					<step>E</step>
					<octave>3</octave>
				</pitch>
				<duration>240</duration>
				<voice>4</voice>
				<type>eighth</type>
				<stem>down</stem>
				<staff>2</staff>
				<beam number="1">begin</beam>
			</note>
			<note>
				<pitch>
					<step>C</step>
					<octave>3</octave>
				</pitch>
				<duration>240</duration>
				<voice>4</voice>
				<type>eighth</type>
				<stem>down</stem>
				<staff>2</staff>
				<beam number="1">end</beam>
			</note>
		</measure>
		<measure number="12">
			<note>
				<pitch>
					<step>F</step>
					<alter>1</alter>
					<octave>4</octave>
				</pitch>
				<duration>720</duration>
				<voice>1</voice>
				<type>quarter</type>
				<dot/>
				<stem>up</stem>
				<staff>1</staff>
			</note>
			<note>
				<pitch>
					<step>F</step>
					<alter>1</alter>
					<octave>4</octave>
				</pitch>
				<duration>240</duration>
				<voice>1</voice>
				<type>eighth</type>
				<stem>up</stem>
				<staff>1</staff>
			</note>
			<note>
				<pitch>
					<step>E</step>
					<octave>4</octave>
				</pitch>
				<duration>960</duration>
				<voice>1</voice>
				<type>half</type>
				<stem>up</stem>
				<staff>1</staff>
				<notations>
					<fermata type="upright"/>
				</notations>
			</note>
			<backup>
				<duration>1920</duration>
			</backup>
			<note>
				<pitch>
					<step>E</step>
					<octave>4</octave>
				</pitch>
				<duration>480</duration>
				<voice>2</voice>
				<type>quarter</type>
				<stem>down</stem>
				<staff>1</staff>
				<lyric default-y="-105" number="1">
					<syllabic>single</syllabic>
					<text>laß´</text>
				</lyric>
			</note>
			<note>
				<pitch>
					<step>D</step>
					<alter>1</alter>
					<octave>4</octave>
				</pitch>
				<duration>480</duration>
				<voice>2</voice>
				<type>quarter</type>
				<accidental>sharp</accidental>
				<stem>down</stem>
				<staff>1</staff>
				<lyric default-y="-105" number="1">
					<syllabic>single</syllabic>
					<text>ich</text>
				</lyric>
			</note>
			<note>
				<pitch>
					<step>B</step>
					<octave>3</octave>
				</pitch>
				<duration>960</duration>
				<voice>2</voice>
				<type>half</type>
				<stem>down</stem>
				<staff>1</staff>
				<lyric default-y="-105" number="1">
					<syllabic>single</syllabic>
					<text>nicht.</text>
				</lyric>
			</note>
			<backup>
				<duration>1920</duration>
			</backup>
			<note>
				<pitch>
					<step>C</step>
					<octave>4</octave>
				</pitch>
				<duration>240</duration>
				<voice>3</voice>
				<type>eighth</type>
				<stem>up</stem>
				<staff>2</staff>
				<beam number="1">begin</beam>
			</note>
			<note>
				<pitch>
					<step>A</step>
					<octave>3</octave>
				</pitch>
				<duration>240</duration>
				<voice>3</voice>
				<type>eighth</type>
				<stem>up</stem>
				<staff>2</staff>
				<beam number="1">end</beam>
			</note>
			<note>
				<pitch>
					<step>F</step>
					<alter>1</alter>
					<octave>3</octave>
				</pitch>
				<duration>240</duration>
				<voice>3</voice>
				<type>eighth</type>
				<stem>up</stem>
				<staff>2</staff>
				<beam number="1">begin</beam>
				<notations>
					<slur number="1" placement="above" type="start"/>
				</notations>
			</note>
			<note>
				<pitch>
					<step>B</step>
					<octave>3</octave>
				</pitch>
				<duration>120</duration>
				<voice>3</voice>
				<type>16th</type>
				<stem>up</stem>
				<staff>2</staff>
				<beam number="1">continue</beam>
				<beam number="2">begin</beam>
			</note>
			<note>
				<pitch>
					<step>A</step>
					<octave>3</octave>
				</pitch>
				<duration>120</duration>
				<voice>3</voice>
				<type>16th</type>
				<stem>up</stem>
				<staff>2</staff>
				<beam number="1">end</beam>
				<beam number="2">end</beam>
				<notations>
					<slur number="1" type="stop"/>
				</notations>
			</note>
			<note>
				<pitch>
					<step>G</step>
					<alter>1</alter>
					<octave>3</octave>
				</pitch>
				<duration>960</duration>
				<voice>3</voice>
				<type>half</type>
				<accidental>sharp</accidental>
				<stem>up</stem>
				<staff>2</staff>
			</note>
			<backup>
				<duration>1920</duration>
			</backup>
			<note>
				<pitch>
					<step>A</step>
					<octave>2</octave>
				</pitch>
				<duration>240</duration>
				<voice>4</voice>
				<type>eighth</type>
				<stem>down</stem>
				<staff>2</staff>
				<beam number="1">begin</beam>
			</note>
			<note>
				<pitch>
					<step>F</step>
					<alter>1</alter>
					<octave>2</octave>
				</pitch>
				<duration>240</duration>
				<voice>4</voice>
				<type>eighth</type>
				<stem>down</stem>
				<staff>2</staff>
				<beam number="1">end</beam>
			</note>
			<note>
				<pitch>
					<step>B</step>
					<octave>2</octave>
				</pitch>
				<duration>480</duration>
				<voice>4</voice>
				<type>quarter</type>
				<stem>down</stem>
				<staff>2</staff>
			</note>
			<note>
				<pitch>
					<step>E</step>
					<octave>2</octave>
				</pitch>
				<duration>960</duration>
				<voice>4</voice>
				<type>half</type>
				<stem>down</stem>
				<staff>2</staff>
				<notations>
					<fermata type="inverted"/>
				</notations>
			</note>
			<barline>
				<bar-style>light-heavy</bar-style>
			</barline>
		</measure>
	</part>
</score-partwise>
